<?xml version="1.0" standalone="no"?>
<!DOCTYPE svg PUBLIC "-//W3C//DTD SVG 20010904//EN"
 "http://www.w3.org/TR/2001/REC-SVG-20010904/DTD/svg10.dtd">
<svg version="1.0" xmlns="http://www.w3.org/2000/svg"
 width="109.000000pt" height="109.000000pt" viewBox="0 0 109.000000 109.000000"
 preserveAspectRatio="xMidYMid meet">
<metadata>
Created by potrace 1.14, written by Peter Selinger 2001-2017
</metadata>
<g transform="translate(0.000000,109.000000) scale(0.100000,-0.100000)"
fill="#000000" stroke="none">
<path d="M442 1021 c-106 -36 -170 -115 -179 -219 -4 -42 0 -68 14 -101 l19
-45 23 47 c29 60 98 129 142 142 35 11 137 12 174 2 11 -3 23 -6 27 -6 4 -1
23 -15 43 -32 39 -34 69 -84 60 -98 -11 -19 -59 6 -82 42 l-24 38 28 -6 28 -6
-30 25 c-40 34 -99 42 -151 21 -54 -21 -177 -153 -221 -237 l-33 -63 0 40 -1
40 -12 -29 -13 -30 -23 25 -22 24 7 -30 c22 -97 80 -201 146 -265 62 -60 111
-82 193 -87 60 -4 77 -1 114 19 24 13 49 32 55 42 6 10 24 33 39 50 27 30 57
109 57 150 0 19 -2 19 -18 -5 -41 -63 -111 -99 -188 -99 -64 0 -57 22 21 65
93 52 165 147 185 243 11 48 13 50 35 40 13 -6 36 -33 51 -62 25 -45 29 -61
28 -131 -1 -102 -29 -176 -91 -246 -54 -59 -98 -89 -168 -113 -71 -24 -190
-31 -256 -16 -175 41 -320 198 -348 379 -12 75 -21 90 -21 35 0 -216 113 -392
319 -496 90 -47 95 -48 182 -48 193 0 345 97 433 274 l39 78 1 162 1 161 -32
65 c-45 93 -118 170 -201 213 -123 65 -250 82 -350 48z m-1 -309 c-11 -16 -28
-35 -38 -43 -17 -13 -17 -13 -3 6 20 28 53 65 57 65 3 0 -5 -13 -16 -28z m136
-169 c2 -6 -8 -13 -22 -15 -27 -6 -32 1 -13 20 14 14 30 11 35 -5z"/>
</g>
</svg>
