<svg width="26" height="26" fill="none" xmlns="http://www.w3.org/2000/svg"><g clip-path="url(#a)"><path fill-rule="evenodd" clip-rule="evenodd" d="M1.625 13a11.375 11.375 0 1 0 22.75 0 11.375 11.375 0 0 0-22.75 0ZM26 13a13 13 0 1 1-26 0 13 13 0 0 1 26 0Zm-7.313-.813a.812.812 0 1 1 0 1.626H9.274l3.489 3.487a.815.815 0 0 1-.264 1.327.813.813 0 0 1-.887-.177l-4.875-4.875a.813.813 0 0 1 0-1.15l4.875-4.875a.814.814 0 0 1 1.15 1.15l-3.488 3.488h9.414Z" fill="#110303"/></g><defs><clipPath id="a"><path fill="#fff" d="M0 0h26v26H0z"/></clipPath></defs></svg>