<svg width="61" height="61" fill="none" xmlns="http://www.w3.org/2000/svg"><path d="M39.506 26.737 20.52 15.788M49 40.661V23.784a4.22 4.22 0 0 0-2.11-3.65l-14.768-8.439a4.218 4.218 0 0 0-4.219 0l-14.768 8.439a4.219 4.219 0 0 0-2.11 3.65V40.66a4.219 4.219 0 0 0 2.11 3.65l14.768 8.439a4.22 4.22 0 0 0 4.22 0L46.89 44.31a4.22 4.22 0 0 0 2.11-3.65Z" stroke="#E87C40" stroke-width="4" stroke-linecap="round" stroke-linejoin="round"/><path d="m11.595 21.59 18.418 10.654L48.43 21.59M30.013 53.488V32.223" stroke="#E87C40" stroke-width="4" stroke-linecap="round" stroke-linejoin="round"/><path d="M46.506 19.737 27.52 8.788M56 33.661V16.784a4.22 4.22 0 0 0-2.11-3.65L39.122 4.695a4.22 4.22 0 0 0-4.219 0l-14.768 8.439a4.219 4.219 0 0 0-2.11 3.65V33.66a4.219 4.219 0 0 0 2.11 3.65l14.768 8.439a4.22 4.22 0 0 0 4.22 0L53.89 37.31a4.22 4.22 0 0 0 2.11-3.65Z" stroke="#110303" stroke-width="4" stroke-linecap="round" stroke-linejoin="round"/><path d="m18.595 14.59 18.418 10.654L55.43 14.59M37.013 46.488V25.223" stroke="#110303" stroke-width="4" stroke-linecap="round" stroke-linejoin="round"/></svg>