<svg width="26" height="26" fill="none" xmlns="http://www.w3.org/2000/svg"><g clip-path="url(#a)"><path fill-rule="evenodd" clip-rule="evenodd" d="M24.375 13a11.375 11.375 0 1 1-22.75 0 11.375 11.375 0 0 1 22.75 0ZM0 13a13 13 0 1 0 26 0 13 13 0 0 0-26 0Zm7.313-.813a.812.812 0 1 0 0 1.626h9.413L13.237 17.3a.815.815 0 0 0 .264 1.327.813.813 0 0 0 .887-.177l4.875-4.875a.815.815 0 0 0 0-1.15L14.388 7.55a.814.814 0 0 0-1.15 1.15l3.488 3.488H7.313Z" fill="#110303"/></g><defs><clipPath id="a"><path fill="#fff" transform="matrix(-1 0 0 1 26 0)" d="M0 0h26v26H0z"/></clipPath></defs></svg>